<svg width="133" height="15" viewBox="0 0 133 15" fill="none" xmlns="http://www.w3.org/2000/svg">
<path d="M56.9359 0.0457764H67.6425C69.7378 0.0457764 71.0485 1.66098 70.557 3.76219L69.8442 7.29277C69.3527 9.66556 68.1742 10.7233 65.7196 10.7233H58.7352L57.8528 15.0115H53.7915L56.9359 0.0457764ZM64.6964 7.09552C65.6449 7.09552 65.9065 6.80964 66.0387 6.14069L66.3261 4.69129C66.4899 3.93371 65.9984 3.70215 65.4638 3.70215H60.2097L59.4883 7.13268H64.6964V7.09552Z" fill="#2E2E2E"/>
<path d="M68.821 13.0589L77.1707 0.0457764H82.4909L85.3652 13.0589L84.9743 14.9686H81.2636L80.8382 12.3957H74.0263L72.5547 14.9686H68.4272L68.821 13.0589ZM80.249 9.10524L79.3638 3.7679H79.1683L76.0239 9.10524H80.249Z" fill="#2E2E2E"/>
<path d="M90.2684 10.4888L86.437 2.05545L86.8624 0.0142822H90.1707L92.7259 6.10634H92.9213L98.0116 0.0142822H102.122L101.696 2.05545L94.2952 10.4888L93.3467 14.9685H89.3227L90.2684 10.4888Z" fill="#2E2E2E"/>
<path d="M102.898 3.43053C103.387 1.09205 104.568 0 107.023 0H117.206L116.715 2.33848L115.177 3.62207H108.072C107.12 3.62207 106.859 3.90795 106.727 4.5769L105.517 10.3087C105.353 11.0663 105.844 11.2979 106.379 11.2979H114.861L114.108 14.9342H104.252C102.122 14.9342 100.877 13.3219 101.337 11.2178L102.898 3.43053Z" fill="#2E2E2E"/>
<path d="M119.738 0.0457764H133L132.543 2.28706L131.002 3.57065H123.046L122.587 5.81193H129.367L128.646 9.24246H121.868L121.408 11.4809H130.643L129.858 14.9686H116.597L119.738 0.0457764Z" fill="#2E2E2E"/>
<path d="M19.0331 0.0285645H32.2949L31.835 2.26985L30.2973 3.55344H22.3414L21.8815 5.79472H28.6589L27.9404 9.22525H21.16L20.6944 11.4608H29.9294L29.1504 14.9514H15.8887L19.0331 0.0285645Z" fill="#2E2E2E"/>
<path d="M1.6669 3.45624C2.1584 1.11776 3.33684 0.0285645 5.79145 0.0285645H15.9749L15.4834 2.36704L13.9457 3.65349H6.84054C5.88917 3.65349 5.62761 3.93937 5.49827 4.60832L4.28534 10.3402C4.12151 11.0977 4.613 11.3293 5.14761 11.3293H13.618L12.865 14.9514H3.00918C0.879359 14.9514 -0.36519 13.3362 0.0946893 11.235L1.6669 3.45624Z" fill="#2E2E2E"/>
<path d="M9.53076 11.338H13.6093L14.0606 9.13098H9.99639L9.53076 11.338Z" fill="#2E2E2E"/>
<path d="M7.9671 5.76331L7.24854 9.19098H14.026L14.7474 5.76331H7.9671Z" fill="#2E2E2E"/>
<path d="M48.2701 2.1984L46.5455 3.62779L42.7544 3.6478L42.033 7.07833L41.2799 10.669L40.3975 14.9571H36.3362L38.7132 3.6478L33.4648 3.63065L34.2236 0H48.7271L48.2701 2.1984Z" fill="#2E2E2E"/>
</svg>
